<svg width="46" height="35" viewBox="0 0 46 35" fill="none" xmlns="http://www.w3.org/2000/svg">
<path d="M0.761364 35V26.0511C0.761364 23.3333 1.24195 20.4498 2.20312 17.4006C3.19744 14.3182 4.62263 11.3518 6.47869 8.50142C8.3679 5.61789 10.6383 3.11553 13.2898 0.994315L19.6534 6.16477C17.5653 9.14773 15.7424 12.2633 14.1847 15.5114C12.66 18.7263 11.8977 22.1733 11.8977 25.8523V35H0.761364ZM26.2159 35V26.0511C26.2159 23.3333 26.6965 20.4498 27.6577 17.4006C28.652 14.3182 30.0772 11.3518 31.9332 8.50142C33.8224 5.61789 36.0928 3.11553 38.7443 0.994315L45.108 6.16477C43.0199 9.14773 41.197 12.2633 39.6392 15.5114C38.1146 18.7263 37.3523 22.1733 37.3523 25.8523V35H26.2159Z" fill="white"/>
</svg>
